<svg width="32" height="32" viewBox="0 0 32 32" fill="none" xmlns="http://www.w3.org/2000/svg">
    <g clip-path="url(#clip0_2163_12553)">
        <path fill-rule="evenodd" clip-rule="evenodd" d="M8 0C3.58172 0 0 3.58172 0 8V24C0 26.7698 1.40763 29.2109 3.54655 30.6468C5.22275 17.4349 7.81006 11.0725 9.89091 10.5228L11.5597 11.0861C11.6093 11.1043 11.6364 11.112 11.6364 11.112L11.5597 11.0861C11.0078 10.8837 7.66061 9.37943 7.66061 2.66667C10.7636 4.63069 13.2848 8.95154 13.6727 10.2282C13.4788 8.95154 13.2848 8.55873 13.2848 8.55873C16 7.57672 18.7152 8.55873 18.7152 8.55873C18.7152 8.55873 18.5212 8.95154 18.2303 10.2282C18.7152 8.95154 21.2364 4.63069 24.3394 2.66667C24.3394 9.2983 21.1161 10.8345 20.4741 11.0747L20.3636 11.112C20.3636 11.112 20.4031 11.1012 20.4741 11.0747L22.1091 10.5228C24.1899 11.0725 26.7772 17.4349 28.4534 30.6468C30.5924 29.2109 32 26.7698 32 24V8C32 3.58172 28.4183 0 24 0H8ZM19.7428 32C19.5099 30.4704 18.878 28.3953 17.1636 28.3953V27.3151C17.1636 27.3151 20.9454 27.3151 22.0121 24.5655L21.9151 30.8504C22.303 28.3953 22.303 23.8781 22.303 23.8781C22.303 23.7341 22.3034 23.5864 22.3037 23.4353C22.3108 20.5464 22.3208 16.4328 19.8788 13.9598C20.7515 15.6292 21.3818 17.1513 21.5273 19.1153C20.5091 19.1153 19.8788 18.1824 19.8788 18.1824C19.8788 18.6243 19.7818 19.1644 19.7818 19.1644C18.6667 19.1153 18.0364 18.3788 18.0364 18.3788C18.0848 18.8698 17.7454 19.459 17.7454 19.459C16.097 19.5573 15.5151 18.477 15.5151 18.477C15.3212 19.1644 15.6121 19.8519 15.6121 19.8519C12.3636 19.8519 12.5091 17.6914 12.5091 17.6914C11.9757 18.3297 11.7818 19.1153 11.7818 19.1153C11.7818 19.1153 10.9091 18.968 10.6667 18.3788C10.6667 18.3788 10.9091 15.3837 12.1212 13.9598C9.64138 15.82 9.68432 21.997 9.69578 23.6459L9.69578 23.6461C9.69642 23.738 9.69696 23.8159 9.69696 23.8781C9.69696 23.8781 9.69696 28.3953 10.0907 30.8504L9.98787 24.5655C11.0545 27.3151 14.8364 27.3151 14.8364 27.3151V28.3953C13.1131 28.3953 12.4835 30.4782 12.2536 32H19.7428ZM14.5454 21.7177C14.497 21.4231 13.8667 19.8028 11.8303 19.7537C10.3273 19.7174 10.0848 21.9632 10.0848 22.9943C10.0848 22.9943 10.2788 21.8159 10.4727 21.3249C10.4727 21.3623 10.4725 21.4024 10.4724 21.4447V21.445L10.4724 21.4453C10.4682 22.4012 10.459 24.5168 12.3151 24.4673C14.1576 24.4182 14.2545 21.5213 14.2545 21.5213L14.5454 21.7177ZM20.1697 19.7537C18.1333 19.8028 17.503 21.4231 17.4545 21.7177L17.7454 21.5213C17.7454 21.5213 17.8424 24.4182 19.6848 24.4673C21.541 24.5168 21.5318 22.4012 21.5276 21.4453C21.5274 21.4028 21.5273 21.3625 21.5273 21.3249C21.7212 21.8159 21.9151 22.9943 21.9151 22.9943C21.9151 21.9632 21.6727 19.7174 20.1697 19.7537ZM12.196 23.3812C12.2066 23.3851 12.2177 23.3871 12.229 23.3871C12.2449 23.3871 12.2605 23.3832 12.2746 23.3757C12.2886 23.3681 12.3006 23.3572 12.3095 23.3439L13.0746 22.1851C13.0844 22.1703 13.0901 22.1531 13.0911 22.1353C13.092 22.1175 13.0881 22.0998 13.0798 22.084C13.0716 22.0682 13.0592 22.0551 13.0441 22.0459C13.029 22.0367 13.0117 22.0319 12.9941 22.0319H12.4229L12.4976 21.3308C12.4989 21.3097 12.4935 21.2888 12.4821 21.2711C12.4708 21.2534 12.4541 21.2399 12.4346 21.2326C12.4143 21.2251 12.3921 21.2247 12.3715 21.2315C12.3509 21.2382 12.3332 21.2518 12.3211 21.2699L11.556 22.4287C11.5462 22.4434 11.5405 22.4607 11.5395 22.4785C11.5386 22.4963 11.5425 22.514 11.5508 22.5298C11.559 22.5455 11.5714 22.5587 11.5865 22.5679C11.6016 22.577 11.6189 22.5819 11.6365 22.5819H12.2077L12.133 23.2781C12.1306 23.2999 12.1355 23.322 12.1469 23.3407C12.1583 23.3594 12.1756 23.3736 12.196 23.3812ZM19.6627 23.3812C19.6733 23.3851 19.6844 23.3871 19.6957 23.3871C19.7115 23.3871 19.7272 23.3832 19.7412 23.3757C19.7553 23.3681 19.7673 23.3572 19.7761 23.3439L20.5412 22.1851C20.5511 22.1703 20.5568 22.1531 20.5577 22.1353C20.5587 22.1175 20.5548 22.0998 20.5465 22.084C20.5382 22.0682 20.5259 22.0551 20.5108 22.0459C20.4957 22.0367 20.4784 22.0319 20.4608 22.0319H19.8896L19.9643 21.3308C19.9656 21.3097 19.9601 21.2888 19.9488 21.2711C19.9374 21.2534 19.9208 21.2399 19.9012 21.2326C19.8809 21.2251 19.8587 21.2247 19.8382 21.2315C19.8176 21.2382 19.7999 21.2518 19.7878 21.2699L19.0227 22.4287C19.0128 22.4434 19.0071 22.4607 19.0062 22.4785C19.0053 22.4963 19.0091 22.514 19.0174 22.5298C19.0257 22.5455 19.038 22.5587 19.0532 22.5679C19.0683 22.577 19.0856 22.5819 19.1032 22.5819H19.6743L19.5997 23.2781C19.5972 23.2999 19.6022 23.322 19.6136 23.3407C19.625 23.3594 19.6423 23.3736 19.6627 23.3812Z" fill="#F09199"/>
    </g>
    <defs>
        <clipPath id="clip0_2163_12553">
            <rect width="32" height="32" rx="16" fill="white"/>
        </clipPath>
    </defs>
</svg>
